<?xml version="1.0" encoding="iso-8859-1"?>
<svg fill="currentColor"  xmlns="http://www.w3.org/2000/svg"
     viewBox="0 0 325.012 325.012" >
<path d="M294.955,93.677c10.366-16.282,18.117-30.523,23.104-42.492c9.028-21.67,9.262-36.357,0.716-44.899
	c-4.125-4.123-9.853-6.214-17.026-6.214c-16.052,0-40.886,10.869-74.035,32.354c-0.316,0.166-0.617,0.361-0.906,0.588
	c-10.059,6.548-20.867,14.053-32.433,22.533C156.919,83.01,111.738,120.825,73.516,156.7c-6.075,5.703-12.282,16.344-12.453,27.262
	c-0.113,7.156,2.418,13.529,7.319,18.429l2.396,2.394c-8.871,7.101-19.313,10.706-31.134,10.707
	c-8.778,0.001-15.02-2.106-15.063-2.12c-1.672-0.585-3.516-0.405-5.043,0.497c-1.524,0.902-2.572,2.433-2.863,4.181L0.073,317.956
	c-0.049,0.298-0.068,0.596-0.073,0.894c-0.001,0.07,0.002,0.141,0.003,0.212c0.007,0.336,0.033,0.671,0.095,0.998
	c0.002,0.013,0.004,0.026,0.007,0.039c0.065,0.33,0.167,0.649,0.285,0.964c0.028,0.074,0.055,0.148,0.086,0.222
	c0.129,0.305,0.283,0.599,0.462,0.879c0.039,0.062,0.083,0.12,0.125,0.181c0.201,0.29,0.42,0.569,0.673,0.824
	c0.004,0.004,0.007,0.01,0.011,0.014c0.003,0.003,0.007,0.005,0.01,0.008c0.282,0.281,0.588,0.531,0.914,0.748
	c0.023,0.016,0.048,0.027,0.072,0.043c0.307,0.197,0.628,0.369,0.963,0.507c0.032,0.014,0.066,0.023,0.099,0.035
	c0.331,0.13,0.671,0.233,1.02,0.303c0.024,0.005,0.049,0.006,0.073,0.011c0.352,0.064,0.71,0.102,1.071,0.102
	c0.007,0,0.014,0.002,0.021,0.002c0.024,0,0.049-0.007,0.073-0.007c0.303-0.004,0.607-0.024,0.91-0.075l99.909-16.602
	c1.748-0.29,3.278-1.339,4.18-2.863c0.902-1.524,1.085-3.37,0.499-5.042c-0.093-0.264-8.408-24.855,8.596-46.207l2.439,2.438
	c4.79,4.789,11.005,7.32,17.972,7.32c11.075,0,21.907-6.254,27.73-12.451c41.787-44.483,83.786-95.464,112.346-136.373
	c2.656-3.805,5.182-7.51,7.605-11.136l22.252,22.248l-74.317,74.242c-2.345,2.342-2.347,6.142-0.005,8.485
	c1.172,1.173,2.708,1.76,4.245,1.76c1.534,0,3.069-0.585,4.24-1.755l78.566-78.485c1.126-1.125,1.76-2.652,1.76-4.244
	c0-1.592-0.632-3.118-1.758-4.244L294.955,93.677z M98.525,297.482l-75.054,12.472l31.081-31.064
	c3.11,1.72,6.602,2.643,10.226,2.645c0,0,0,0,0.001,0c5.465,0,10.579-2.103,14.4-5.922c3.915-3.914,6.018-9.156,5.921-14.76
	c-0.096-5.525-2.328-10.748-6.286-14.705c-4.055-4.052-9.406-6.284-15.068-6.284c-5.466,0-10.579,2.103-14.399,5.921
	c-3.916,3.915-6.019,9.157-5.922,14.761c0.061,3.49,0.978,6.857,2.64,9.862l-31.088,31.07l12.477-75.09
	c3.217,0.588,7.4,1.103,12.191,1.103c10.661-0.001,25.749-2.579,39.666-14.171l32.298,32.297
	C95.356,265.057,96.527,286.7,98.525,297.482z M55.423,260.337c-0.04-2.319,0.815-4.474,2.407-6.065
	c1.554-1.553,3.654-2.408,5.916-2.408c2.458,0,4.797,0.984,6.585,2.771c1.745,1.745,2.729,4.027,2.771,6.426
	c0.04,2.319-0.815,4.474-2.406,6.064c-1.555,1.554-3.655,2.409-5.917,2.409c0,0,0,0-0.001,0c-2.458-0.001-4.796-0.984-6.583-2.771
	C56.449,265.018,55.465,262.736,55.423,260.337z M310.292,14.772c3.143,3.142,9.482,16.974-24.027,70.216l-46.188-46.179
	c27.766-17.415,49.086-26.737,61.672-26.737C305.679,12.072,308.473,12.955,310.292,14.772z M159.553,243.236
	c-4.046,4.308-11.866,8.668-18.983,8.668c-3.822,0-6.926-1.245-9.487-3.807l-54.216-54.193c-2.623-2.622-3.867-5.813-3.806-9.754
	c0.11-7.039,4.444-14.736,8.668-18.7c9.372-8.797,19.166-17.71,29.159-26.556l75.241,75.21
	C177.351,224.001,168.449,233.766,159.553,243.236z M270.806,108.21c-20.343,29.138-47.604,63.468-76.734,96.865l-74.146-74.114
	c27.686-24.105,56.38-47.287,81.544-65.738c9.956-7.301,19.402-13.895,28.285-19.765l49.846,49.838
	C276.885,99.394,273.959,103.695,270.806,108.21z"/>
</svg>