<svg viewBox="0 0 20 18" fill="none" xmlns="http://www.w3.org/2000/svg">
    <path d="M3.08728 15.7499L17.1498 2.24994" stroke="#898D9E" stroke-width="1.2" stroke-linecap="round"
          stroke-linejoin="round"/>
    <path d="M7.72302 14.2882C8.46013 14.5171 9.2282 14.6307 10 14.6249C13.075 14.6767 16.1935 12.5152 18.118 10.3972C18.5454 9.92271 18.5454 9.20211 18.118 8.72766C17.4208 7.96282 16.6484 7.27008 15.8125 6.65991"
          stroke="#898D9E" stroke-width="1.2" stroke-linecap="round" stroke-linejoin="round"/>
    <path d="M11.8098 4.71146C11.218 4.5642 10.6098 4.49312 10 4.49996C6.97677 4.44971 3.85002 6.56396 1.88427 8.72621C1.45691 9.20066 1.45691 9.92126 1.88427 10.3957C2.48197 11.05 3.13433 11.6522 3.83427 12.1957"
          stroke="#898D9E" stroke-width="1.2" stroke-linecap="round" stroke-linejoin="round"/>
    <path d="M7.18753 9.56244C7.18733 8.81646 7.48358 8.10097 8.01107 7.57348C8.53856 7.04599 9.25405 6.74974 10 6.74994"
          stroke="#898D9E" stroke-width="1.2" stroke-linecap="round" stroke-linejoin="round"/>
    <path d="M12.8125 9.56171V9.56171C12.8127 10.3078 12.5165 11.0233 11.989 11.5509C11.4616 12.0785 10.7461 12.375 10 12.375"
          stroke="#898D9E" stroke-width="1.2" stroke-linecap="round" stroke-linejoin="round"/>
</svg>
