<svg viewBox="0 0 20 18" fill="none" xmlns="http://www.w3.org/2000/svg">
    <path fill-rule="evenodd" clip-rule="evenodd"
          d="M9.99999 3.93822C6.97674 3.88722 3.84999 5.99997 1.88424 8.16372C1.45688 8.63817 1.45688 9.35877 1.88424 9.83322C3.80724 11.9512 6.92499 14.1127 9.99999 14.061C13.075 14.1127 16.1935 11.9512 18.118 9.83322C18.5454 9.35877 18.5454 8.63817 18.118 8.16372C16.15 5.99997 13.0232 3.88722 9.99999 3.93822Z"
          stroke="#898D9E" stroke-width="1.2" stroke-linecap="round" stroke-linejoin="round"/>
    <path fill-rule="evenodd" clip-rule="evenodd"
          d="M12.8125 8.99996C12.8121 10.5532 11.5527 11.812 9.9995 11.8117C8.4463 11.8114 7.18736 10.5522 7.1875 8.99896C7.18764 7.44575 8.4468 6.18671 10 6.18671C10.7461 6.18651 11.4617 6.48286 11.9892 7.01051C12.5167 7.53817 12.8129 8.25384 12.8125 8.99996V8.99996Z"
          stroke="#898D9E" stroke-width="1.2" stroke-linecap="round" stroke-linejoin="round"/>
</svg>
