<svg viewBox="0 0 24 24" xmlns="http://www.w3.org/2000/svg">
    <path fill-rule="evenodd" clip-rule="evenodd"
          d="M11.9999 3.08507C11.4454 3.08507 10.917 2.84988 10.5459 2.43793L9.60588 1.39993C9.05004 0.78888 8.17064 0.592141 7.40742 0.908097C6.64419 1.22405 6.16117 1.9848 6.19988 2.80993L6.26688 4.21093C6.29658 4.7655 6.08937 5.30659 5.69687 5.69948C5.30436 6.09237 4.76347 6.30009 4.20888 6.27093L2.80888 6.19993C1.98339 6.16048 1.22201 6.64356 0.9061 7.40723C0.590186 8.17089 0.787766 9.05068 1.39988 9.60593L2.44088 10.5509C2.8523 10.9226 3.08709 11.451 3.08709 12.0054C3.08709 12.5598 2.8523 13.0883 2.44088 13.4599L1.39988 14.3999C0.785706 14.9558 0.587833 15.8381 0.90576 16.6031C1.22369 17.368 1.98861 17.8501 2.81588 17.8069L4.21588 17.7359C4.7694 17.7075 5.30906 17.9149 5.70098 18.3068C6.0929 18.6988 6.30035 19.2384 6.27188 19.7919L6.19988 21.1919C6.16207 22.0167 6.64542 22.7766 7.40842 23.092C8.17142 23.4075 9.05028 23.2106 9.60588 22.5999L10.5509 21.5589C10.9223 21.1476 11.4506 20.9128 12.0049 20.9128C12.5591 20.9128 13.0874 21.1476 13.4589 21.5589L14.3999 22.5999C14.9563 23.2077 15.8336 23.4024 16.5949 23.0868C17.3561 22.7713 17.8386 22.0132 17.8019 21.1899L17.7309 19.7899C17.7024 19.2364 17.9099 18.6968 18.3018 18.3048C18.6937 17.9129 19.2334 17.7055 19.7869 17.7339L21.1869 17.8049C22.0145 17.8471 22.7791 17.3639 23.0963 16.5984C23.4135 15.8328 23.2147 14.9505 22.5999 14.3949L21.5579 13.4549C21.1465 13.0833 20.9117 12.5548 20.9117 12.0004C20.9117 11.446 21.1465 10.9176 21.5579 10.5459L22.5999 9.60593C23.2142 9.05072 23.4131 8.16921 23.0967 7.404C22.7803 6.63879 22.0169 6.15516 21.1899 6.19593L19.7899 6.26693C19.2376 6.2939 18.6996 6.08606 18.3089 5.69477C17.9182 5.30347 17.7111 4.76521 17.7389 4.21293L17.8099 2.81293C17.852 1.98533 17.3689 1.22074 16.6033 0.903514C15.8378 0.586292 14.9554 0.785076 14.3999 1.39993L13.4539 2.43793C13.0828 2.84988 12.5543 3.08507 11.9999 3.08507ZM16.4999 12.0009C16.4999 14.4862 14.4852 16.5009 11.9999 16.5009C9.5146 16.5009 7.49988 14.4862 7.49988 12.0009C7.49988 9.51567 9.5146 7.50095 11.9999 7.50095C14.4852 7.50095 16.4999 9.51567 16.4999 12.0009Z"
          fill="#585CE5"/>
    <path d="M10.5459 2.43793L11.1031 1.93594L11.1018 1.9345L10.5459 2.43793ZM9.60588 1.39993L10.1618 0.896495L10.1607 0.895265L9.60588 1.39993ZM6.19988 2.80993L5.4507 2.84508L5.45073 2.84576L6.19988 2.80993ZM6.26688 4.21093L5.51772 4.24676L5.51795 4.25104L6.26688 4.21093ZM4.20888 6.27093L4.24826 5.52197L4.24686 5.5219L4.20888 6.27093ZM2.80888 6.19993L2.84686 5.45089L2.84469 5.45079L2.80888 6.19993ZM0.9061 7.40723L1.59914 7.69393L0.9061 7.40723ZM1.39988 9.60593L1.90398 9.05062L1.90378 9.05043L1.39988 9.60593ZM2.44088 10.5509L1.93677 11.1063L1.93815 11.1075L2.44088 10.5509ZM2.44088 13.4599L2.94352 14.0166L2.9436 14.0165L2.44088 13.4599ZM1.39988 14.3999L0.897239 13.8433L0.89658 13.8439L1.39988 14.3999ZM2.81588 17.8069L2.77789 17.0579L2.77679 17.058L2.81588 17.8069ZM4.21588 17.7359L4.25387 18.485L4.25441 18.4849L4.21588 17.7359ZM6.27188 19.7919L5.52287 19.7534L5.52287 19.7534L6.27188 19.7919ZM6.19988 21.1919L5.45086 21.1534L5.45066 21.1576L6.19988 21.1919ZM9.60588 22.5999L10.1606 23.1046L10.1612 23.104L9.60588 22.5999ZM10.5509 21.5589L11.1062 22.063L11.1075 22.0616L10.5509 21.5589ZM13.4589 21.5589L12.9022 22.0616L12.9025 22.0619L13.4589 21.5589ZM14.3999 22.5999L13.8435 23.1029L13.8467 23.1064L14.3999 22.5999ZM17.8019 21.1899L18.5511 21.1566L18.5509 21.1519L17.8019 21.1899ZM17.7309 19.7899L18.4799 19.7519L18.4799 19.7514L17.7309 19.7899ZM19.7869 17.7339L19.7484 18.4829L19.7489 18.483L19.7869 17.7339ZM21.1869 17.8049L21.225 17.0559L21.2249 17.0559L21.1869 17.8049ZM22.5999 14.3949L23.1027 13.8384L23.1023 13.838L22.5999 14.3949ZM21.5579 13.4549L21.0552 14.0115L21.0555 14.0118L21.5579 13.4549ZM21.5579 10.5459L21.0555 9.98905L21.0552 9.98936L21.5579 10.5459ZM22.5999 9.60593L23.1023 10.1628L23.1028 10.1624L22.5999 9.60593ZM21.1899 6.19593L21.1529 5.44684L21.1519 5.4469L21.1899 6.19593ZM19.7899 6.26693L19.8264 7.01604L19.8279 7.01597L19.7899 6.26693ZM17.7389 4.21293L16.9898 4.17495L16.9898 4.17527L17.7389 4.21293ZM17.8099 2.81293L17.0608 2.77479L17.0608 2.77495L17.8099 2.81293ZM16.6033 0.903514L16.8904 0.210643V0.210642L16.6033 0.903514ZM14.3999 1.39993L14.9542 1.90513L14.9564 1.90275L14.3999 1.39993ZM13.4539 2.43793L12.8995 1.93273L12.8966 1.93594L13.4539 2.43793ZM9.98865 2.93992C10.502 3.50975 11.2329 3.83507 11.9999 3.83507V2.33507C11.6579 2.33507 11.332 2.19002 11.1031 1.93594L9.98865 2.93992ZM9.04995 1.90337L9.98995 2.94137L11.1018 1.9345L10.1618 0.896496L9.04995 1.90337ZM7.69429 1.60106C8.16531 1.40607 8.70804 1.52749 9.05107 1.9046L10.1607 0.895265C9.39205 0.0502697 8.17597 -0.221791 7.12055 0.215129L7.69429 1.60106ZM6.94905 2.77479C6.92516 2.26556 7.22326 1.79606 7.69429 1.60106L7.12055 0.215129C6.06512 0.652048 5.39717 1.70405 5.4507 2.84508L6.94905 2.77479ZM7.01602 4.17511L6.94902 2.77411L5.45073 2.84576L5.51773 4.24676L7.01602 4.17511ZM6.22745 6.22955C6.77031 5.68617 7.05688 4.93782 7.01581 4.17083L5.51795 4.25104C5.53627 4.59318 5.40844 4.92701 5.16628 5.1694L6.22745 6.22955ZM4.1695 7.0199C4.93653 7.06023 5.6846 6.77293 6.22745 6.22955L5.16628 5.1694C4.92412 5.4118 4.59042 5.53996 4.24826 5.52197L4.1695 7.0199ZM2.77089 6.94897L4.17089 7.01997L4.24686 5.5219L2.84686 5.4509L2.77089 6.94897ZM1.59914 7.69393C1.79405 7.22278 2.26378 6.92474 2.77307 6.94908L2.84469 5.45079C1.703 5.39622 0.649984 6.06435 0.21306 7.12053L1.59914 7.69393ZM1.90378 9.05043C1.52613 8.70787 1.40424 8.16507 1.59914 7.69393L0.21306 7.12053C-0.223863 8.17671 0.0493991 9.3935 0.895976 10.1614L1.90378 9.05043ZM2.94498 9.99562L1.90398 9.05062L0.895772 10.1613L1.93677 11.1063L2.94498 9.99562ZM3.83709 12.0054C3.83709 11.2389 3.51245 10.5082 2.9436 9.99436L1.93815 11.1075C2.19214 11.3369 2.33709 11.6632 2.33709 12.0054H3.83709ZM2.9436 14.0165C3.51245 13.5027 3.83709 12.772 3.83709 12.0054H2.33709C2.33709 12.3477 2.19214 12.6739 1.93815 12.9034L2.9436 14.0165ZM1.90252 14.9566L2.94352 14.0166L1.93824 12.9033L0.897239 13.8433L1.90252 14.9566ZM1.59833 16.3152C1.40218 15.8433 1.52426 15.299 1.90318 14.956L0.89658 13.8439C0.0471539 14.6127 -0.226513 15.8329 0.213194 16.8909L1.59833 16.3152ZM2.77679 17.058C2.2664 17.0846 1.79447 16.7872 1.59833 16.3152L0.213194 16.8909C0.652902 17.9489 1.71082 18.6156 2.85497 18.5559L2.77679 17.058ZM4.17789 16.9869L2.77789 17.0579L2.85387 18.556L4.25387 18.485L4.17789 16.9869ZM6.23131 17.7765C5.68927 17.2345 4.9429 16.9475 4.17735 16.9869L4.25441 18.4849C4.59591 18.4674 4.92885 18.5954 5.17065 18.8372L6.23131 17.7765ZM7.02089 19.8305C7.06027 19.0649 6.77335 18.3185 6.23131 17.7765L5.17065 18.8372C5.41244 19.079 5.54043 19.4119 5.52287 19.7534L7.02089 19.8305ZM6.94889 21.2305L7.02089 19.8305L5.52287 19.7534L5.45087 21.1534L6.94889 21.2305ZM7.69495 22.3989C7.22406 22.2043 6.92576 21.7353 6.94909 21.2263L5.45066 21.1576C5.39839 22.2981 6.06678 23.349 7.1219 23.7852L7.69495 22.3989ZM9.05111 22.0952C8.70822 22.4721 8.16583 22.5936 7.69495 22.3989L7.1219 23.7852C8.17701 24.2213 9.39233 23.9492 10.1606 23.1046L9.05111 22.0952ZM9.99556 21.0548L9.05056 22.0958L10.1612 23.104L11.1062 22.063L9.99556 21.0548ZM12.0049 20.1628C11.2384 20.1628 10.5079 20.4874 9.99422 21.0563L11.1075 22.0616C11.3368 21.8077 11.6628 21.6628 12.0049 21.6628V20.1628ZM14.0155 21.0563C13.5019 20.4874 12.7713 20.1628 12.0049 20.1628V21.6628C12.3469 21.6628 12.673 21.8077 12.9022 22.0616L14.0155 21.0563ZM14.9563 22.097L14.0153 21.056L12.9025 22.0619L13.8435 23.1029L14.9563 22.097ZM16.3077 22.394C15.8379 22.5887 15.2965 22.4686 14.9531 22.0935L13.8467 23.1064C14.6161 23.9469 15.8293 24.216 16.882 23.7797L16.3077 22.394ZM17.0526 21.2233C17.0753 21.7314 16.7775 22.1993 16.3077 22.394L16.882 23.7797C17.9347 23.3434 18.6019 22.295 18.5511 21.1566L17.0526 21.2233ZM16.9818 19.8279L17.0528 21.2279L18.5509 21.1519L18.4799 19.7519L16.9818 19.8279ZM17.7714 17.7745C17.2294 18.3165 16.9425 19.0629 16.9819 19.8285L18.4799 19.7514C18.4623 19.4099 18.5903 19.077 18.8321 18.8352L17.7714 17.7745ZM19.8254 16.9849C19.0599 16.9455 18.3135 17.2325 17.7714 17.7745L18.8321 18.8352C19.0739 18.5934 19.4068 18.4654 19.7484 18.4829L19.8254 16.9849ZM21.2249 17.0559L19.8249 16.9849L19.7489 18.483L21.1489 18.554L21.2249 17.0559ZM22.4034 16.3113C22.2077 16.7837 21.7358 17.0819 21.225 17.0559L21.1487 18.554C22.2932 18.6122 23.3505 17.9441 23.7892 16.8855L22.4034 16.3113ZM22.0971 14.9514C22.4765 15.2943 22.5992 15.8388 22.4034 16.3113L23.7892 16.8855C24.2278 15.8268 23.953 14.6067 23.1027 13.8384L22.0971 14.9514ZM21.0555 14.0118L22.0975 14.9518L23.1023 13.838L22.0603 12.898L21.0555 14.0118ZM20.1617 12.0004C20.1617 12.767 20.4863 13.4977 21.0552 14.0115L22.0606 12.8984C21.8066 12.6689 21.6617 12.3427 21.6617 12.0004H20.1617ZM21.0552 9.98936C20.4863 10.5032 20.1617 11.2339 20.1617 12.0004H21.6617C21.6617 11.6582 21.8066 11.3319 22.0606 11.1025L21.0552 9.98936ZM22.0975 9.04905L21.0555 9.98905L22.0603 11.1028L23.1023 10.1628L22.0975 9.04905ZM22.4036 7.69058C22.5989 8.16283 22.4761 8.70686 22.097 9.04951L23.1028 10.1624C23.9523 9.39458 24.2273 8.17559 23.7898 7.11742L22.4036 7.69058ZM21.2268 6.94502C21.7372 6.91986 22.2083 7.21833 22.4036 7.69058L23.7898 7.11742C23.3522 6.05924 22.2966 5.39046 21.1529 5.44684L21.2268 6.94502ZM19.8279 7.01597L21.2279 6.94497L21.1519 5.4469L19.7519 5.5179L19.8279 7.01597ZM17.7782 6.22471C18.3186 6.76589 19.0626 7.05333 19.8264 7.01604L19.7533 5.51783C19.4126 5.53446 19.0807 5.40623 18.8396 5.16482L17.7782 6.22471ZM16.9898 4.17527C16.9514 4.93909 17.2378 5.68353 17.7782 6.22471L18.8396 5.16482C18.5985 4.92341 18.4708 4.59133 18.4879 4.2506L16.9898 4.17527ZM17.0608 2.77495L16.9898 4.17495L18.4879 4.25092L18.5589 2.85092L17.0608 2.77495ZM16.3162 1.59639C16.7887 1.79216 17.0869 2.26403 17.0608 2.77479L18.5589 2.85108C18.6172 1.70663 17.9491 0.649312 16.8904 0.210643L16.3162 1.59639ZM14.9564 1.90275C15.2992 1.52329 15.8438 1.40061 16.3162 1.59639L16.8904 0.210642C15.8318 -0.228027 14.6117 0.0468608 13.8434 0.897116L14.9564 1.90275ZM14.0082 2.94313L14.9542 1.90513L13.8456 0.894739L12.8996 1.93274L14.0082 2.94313ZM11.9999 3.83507C12.7668 3.83507 13.4978 3.50975 14.0111 2.93992L12.8966 1.93594C12.6678 2.19002 12.3418 2.33507 11.9999 2.33507V3.83507ZM11.9999 17.2509C14.8994 17.2509 17.2499 14.9004 17.2499 12.0009H15.7499C15.7499 14.072 14.0709 15.7509 11.9999 15.7509V17.2509ZM6.74988 12.0009C6.74988 14.9004 9.10038 17.2509 11.9999 17.2509V15.7509C9.92881 15.7509 8.24988 14.072 8.24988 12.0009H6.74988ZM11.9999 6.75095C9.10038 6.75095 6.74988 9.10145 6.74988 12.0009H8.24988C8.24988 9.92988 9.92881 8.25095 11.9999 8.25095V6.75095ZM17.2499 12.0009C17.2499 9.10145 14.8994 6.75095 11.9999 6.75095V8.25095C14.0709 8.25095 15.7499 9.92988 15.7499 12.0009H17.2499Z"
          fill="#585CE5"/>
</svg>
