<svg viewBox="0 0 24 24" fill="none" xmlns="http://www.w3.org/2000/svg">
    <path fill-rule="evenodd" clip-rule="evenodd"
          d="M10.5459 2.43793C10.917 2.84988 11.4454 3.08507 11.9999 3.08507C12.5543 3.08507 13.0828 2.84988 13.4539 2.43793L14.3999 1.39993C14.9554 0.785076 15.8378 0.586292 16.6033 0.903514C17.3689 1.22074 17.852 1.98533 17.8099 2.81293L17.7389 4.21293C17.7111 4.76521 17.9182 5.30347 18.3089 5.69477C18.6996 6.08606 19.2376 6.2939 19.7899 6.26693L21.1899 6.19593C22.0169 6.15516 22.7803 6.63879 23.0967 7.404C23.4131 8.16921 23.2142 9.05072 22.5999 9.60593L21.5579 10.5459C21.1465 10.9176 20.9117 11.446 20.9117 12.0004C20.9117 12.5548 21.1465 13.0833 21.5579 13.4549L22.5999 14.3949C23.2147 14.9505 23.4135 15.8328 23.0963 16.5984C22.7791 17.3639 22.0145 17.8471 21.1869 17.8049L19.7869 17.7339C19.2334 17.7055 18.6937 17.9129 18.3018 18.3048C17.9099 18.6968 17.7024 19.2364 17.7309 19.7899L17.8019 21.1899C17.8386 22.0132 17.3561 22.7713 16.5949 23.0868C15.8336 23.4024 14.9563 23.2077 14.3999 22.5999L13.4589 21.5589C13.0874 21.1476 12.5591 20.9128 12.0049 20.9128C11.4506 20.9128 10.9223 21.1476 10.5509 21.5589L9.60588 22.5999C9.05028 23.2106 8.17142 23.4075 7.40842 23.092C6.64542 22.7766 6.16207 22.0167 6.19988 21.1919L6.27188 19.7919C6.30035 19.2384 6.0929 18.6988 5.70098 18.3068C5.30906 17.9149 4.7694 17.7075 4.21588 17.7359L2.81588 17.8069C1.98861 17.8501 1.22369 17.368 0.90576 16.6031C0.587833 15.8381 0.785706 14.9558 1.39988 14.3999L2.44088 13.4599C2.8523 13.0883 3.08709 12.5598 3.08709 12.0054C3.08709 11.451 2.8523 10.9226 2.44088 10.5509L1.39988 9.60593C0.787766 9.05068 0.590186 8.17089 0.9061 7.40723C1.22201 6.64356 1.98339 6.16048 2.80888 6.19993L4.20888 6.27093C4.76347 6.30009 5.30436 6.09237 5.69687 5.69948C6.08937 5.30659 6.29658 4.7655 6.26688 4.21093L6.19988 2.80993C6.16117 1.9848 6.64419 1.22405 7.40742 0.908097C8.17064 0.592141 9.05004 0.78888 9.60588 1.39993L10.5459 2.43793Z"
          stroke="#B0B2C4" stroke-width="1.5" stroke-linecap="round" stroke-linejoin="round"/>
    <path fill-rule="evenodd" clip-rule="evenodd"
          d="M11.9999 16.5009C14.4852 16.5009 16.4999 14.4862 16.4999 12.0009C16.4999 9.51566 14.4852 7.50095 11.9999 7.50095C9.5146 7.50095 7.49988 9.51566 7.49988 12.0009C7.49988 14.4862 9.5146 16.5009 11.9999 16.5009Z"
          stroke="#B0B2C4" stroke-width="1.5" stroke-linecap="round" stroke-linejoin="round"/>
</svg>
