<svg viewBox="0 0 24 24" fill="none" xmlns="http://www.w3.org/2000/svg">
    <path fill-rule="evenodd" clip-rule="evenodd"
          d="M0.746002 2.25C0.746002 1.42157 1.41758 0.75 2.246 0.75H21.746C22.5744 0.75 23.246 1.42157 23.246 2.25V21.75C23.246 22.5784 22.5744 23.25 21.746 23.25H2.246C1.41758 23.25 0.746002 22.5784 0.746002 21.75V2.25Z"
          fill="currentColor" stroke="currentColor" stroke-width="1.5" stroke-linecap="round" stroke-linejoin="round"/>
    <path d="M4 19L8.30083 11.7217C8.45322 11.4636 8.65996 11.3186 8.87554 11.3186C9.09112 11.3186 9.29786 11.4636 9.45025 11.7217L11.5508 15.2765C11.7032 15.5346 11.91 15.6795 12.1255 15.6795C12.3411 15.6795 12.5479 15.5346 12.7003 15.2765L18 6.5"
          stroke="white" stroke-width="1.5" stroke-linecap="round" stroke-linejoin="round"/>
    <path d="M14 7L18.5 5.5L19.5 10" stroke="white" stroke-width="1.5" stroke-linecap="round" stroke-linejoin="round"/>
</svg>
