<svg fill="currentColor" id="Layer_1" xmlns="http://www.w3.org/2000/svg"
     viewBox="0 0 512 512">
  <g>
    <g>
      <path
        stroke-width="1.5" stroke-linecap="round"
        stroke-linejoin="round"
        d="M269.491,291.727l-70.911,21.756l21.84-71.182c-0.678-0.031-1.366-0.042-2.055-0.042
			c-28.202,0-51.147,22.956-51.147,51.157s22.945,51.147,51.147,51.147c28.212,0,51.157-22.945,51.157-51.147
			C269.522,292.853,269.512,292.29,269.491,291.727z" />
    </g>
  </g>
  <g>
    <g>
      <path
        stroke-width="1.5" stroke-linecap="round"
        stroke-linejoin="round"
        d="M333.706,254.441l-25.365,25.365l-8.271,2.534c0.49,3.65,0.741,7.342,0.741,11.076c0,45.463-36.983,82.436-82.446,82.436
			c-45.452,0-82.436-36.973-82.436-82.436s36.983-82.446,82.436-82.446c3.838,0,7.655,0.261,11.42,0.793l2.472-8.041l25.5-25.5
			c-12.609-4.307-25.949-6.539-39.393-6.539c-67.115,0-121.724,54.609-121.724,121.734s54.609,121.734,121.724,121.734
			c67.125,0,121.734-54.609,121.734-121.734C340.099,280.129,337.919,266.935,333.706,254.441z" />
    </g>
  </g>
  <g>
    <g>
      <polygon points="255.275,235.386 245.795,266.268 276.27,256.923 		" />
    </g>
  </g>
  <g>
    <g>
      <polygon points="435.916,0.073 394.396,41.593 405.388,52.722 416.381,63.85 448.025,95.89 459.018,107.018 470.01,118.147
			512,76.157 		" />
    </g>
  </g>
  <g>
    <g>
      <path
        stroke-width="1.5" stroke-linecap="round"
        stroke-linejoin="round"
        d="M394.698,193.459h-0.01l-11.556,11.556l-25.323,25.334c8.907,19.712,13.579,41.291,13.579,63.068
			c0,84.375-68.648,153.023-153.023,153.023S65.352,377.792,65.352,293.416s68.637-153.023,153.013-153.023
			c21.944,0,43.648,4.735,63.464,13.757h0.01l25.25-25.26h0.01l11.546-11.556l11.379-11.368c2.18,1.293,4.339,2.628,6.466,4.005
			c2.357,1.523,4.672,3.077,6.957,4.693c4.318,3.014,8.521,6.195,12.599,9.522l-2.67,2.67l-8.375,8.375l-72.747,72.747
			l31.424,32.248l61.941-61.941l11.201-11.191v-0.01l11.045-11.045h0.01c3.317,4.078,6.487,8.292,9.512,12.609
			c3.056,4.36,5.955,8.844,8.688,13.433l41.812-41.812l-10.993-11.128l-10.993-11.128l-31.643-32.04l-10.993-11.128l-11.003-11.128
			l-41.009,41.02l-1.231,1.22c-32.697-19.535-70.89-30.767-111.659-30.767C97.965,75.187,0,173.152,0,293.562
			c0,120.399,97.965,218.365,218.365,218.365c120.41,0,218.375-97.965,218.375-218.365c0-40.696-11.191-78.827-30.663-111.482
			L394.698,193.459z" />
    </g>
  </g>
</svg>